<svg width="2548" height="1955" viewBox="0 0 2548 1955" fill="none" xmlns="http://www.w3.org/2000/svg">
<path d="M199.308 1161.66H35.172V1572H199.308C312.445 1572 398.616 1482.9 398.616 1366.83C398.616 1250.76 312.445 1161.66 199.308 1161.66ZM199.308 1481.73H128.964V1251.93H199.308C263.79 1251.93 308.341 1296.49 308.341 1366.83C308.341 1437.17 263.79 1481.73 199.308 1481.73ZM526.971 1460.62H735.072C737.417 1449.48 738.589 1437.76 738.589 1425.45C738.589 1336.93 675.28 1270.69 589.694 1270.69C497.075 1270.69 433.765 1338.11 433.765 1425.45C433.765 1512.79 495.902 1580.21 596.143 1580.21C651.832 1580.21 695.21 1559.69 723.934 1519.83L653.59 1479.38C641.866 1492.28 621.349 1501.66 597.315 1501.66C565.074 1501.66 538.109 1491.1 526.971 1460.62ZM525.212 1394.97C533.419 1365.07 555.695 1348.66 589.108 1348.66C615.487 1348.66 641.866 1360.97 651.245 1394.97H525.212ZM964.011 1278.9L903.046 1464.73L842.081 1278.9H744.772L853.219 1572H952.873L1061.32 1278.9H964.011ZM1438.86 1580.21C1513.89 1580.21 1579.54 1543.28 1614.72 1485.24L1533.82 1438.35C1516.23 1470 1480.48 1488.76 1438.86 1488.76C1366.17 1488.76 1319.27 1440.1 1319.27 1366.83C1319.27 1293.55 1366.17 1244.9 1438.86 1244.9C1480.48 1244.9 1515.65 1263.66 1533.82 1295.31L1614.72 1248.42C1578.96 1190.38 1513.3 1153.45 1438.86 1153.45C1315.17 1153.45 1225.48 1246.07 1225.48 1366.83C1225.48 1487.59 1315.17 1580.21 1438.86 1580.21ZM1661.46 1572H1749.39V1144.07H1661.46V1572ZM2003.08 1278.9V1438.93C2003.08 1480.55 1980.81 1499.31 1948.57 1499.31C1920.43 1499.31 1897.57 1482.31 1897.57 1445.97V1278.9H1809.64V1458.86C1809.64 1538 1860.05 1580.21 1919.26 1580.21C1957.94 1580.21 1987.25 1566.14 2003.08 1544.45V1572H2091.01V1278.9H2003.08ZM2330.77 1270.69C2291.5 1270.69 2262.77 1284.18 2243.43 1306.45V1161.66H2155.5V1572H2243.43V1544.45C2262.77 1566.72 2291.5 1580.21 2330.77 1580.21C2407.56 1580.21 2470.87 1512.79 2470.87 1425.45C2470.87 1338.11 2407.56 1270.69 2330.77 1270.69ZM2313.19 1496.97C2272.74 1496.97 2243.43 1469.41 2243.43 1425.45C2243.43 1381.48 2272.74 1353.93 2313.19 1353.93C2353.63 1353.93 2382.94 1381.48 2382.94 1425.45C2382.94 1469.41 2353.63 1496.97 2313.19 1496.97Z" fill="#1C1C1C"/>
<ellipse cx="1162" cy="977.93" rx="1000" ry="977" fill="#00EF60"/>
<mask id="mask0_104_14" style="mask-type:alpha" maskUnits="userSpaceOnUse" x="742" y="391" width="699" height="1242">
<rect x="742" y="391.73" width="698.129" height="1240.79" fill="#C4C4C4"/>
</mask>
<g mask="url(#mask0_104_14)">
<path d="M727.994 -112.544H341.97V852.515H727.994C994.075 852.515 1196.74 642.959 1196.74 369.985C1196.74 97.0113 994.075 -112.544 727.994 -112.544ZM727.994 640.202H562.555V99.7687H727.994C879.646 99.7687 984.424 204.546 984.424 369.985C984.424 535.424 879.646 640.202 727.994 640.202Z" fill="white"/>
<path d="M1470.86 1626.45C1647.33 1626.45 1801.74 1539.59 1884.46 1403.11L1694.21 1292.81C1652.85 1367.26 1568.75 1411.38 1470.86 1411.38C1299.91 1411.38 1189.62 1296.95 1189.62 1124.62C1189.62 952.286 1299.91 837.857 1470.86 837.857C1568.75 837.857 1651.47 881.974 1694.21 956.421L1884.46 846.129C1800.36 709.642 1645.95 622.787 1470.86 622.787C1179.97 622.787 969.033 840.614 969.033 1124.62C969.033 1408.62 1179.97 1626.45 1470.86 1626.45Z" fill="white"/>
</g>
</svg>
